<?xml version="1.0" encoding="UTF-8" standalone="no"?>
<svg
   xmlns:dc="http://purl.org/dc/elements/1.1/"
   xmlns:cc="http://creativecommons.org/ns#"
   xmlns:rdf="http://www.w3.org/1999/02/22-rdf-syntax-ns#"
   xmlns:svg="http://www.w3.org/2000/svg"
   xmlns="http://www.w3.org/2000/svg"
   xmlns:sodipodi="http://sodipodi.sourceforge.net/DTD/sodipodi-0.dtd"
   xmlns:inkscape="http://www.inkscape.org/namespaces/inkscape"
   width="300"
   height="130"
   viewBox="0 0 79.374997 34.395833"
   version="1.1"
   id="svg8"
   inkscape:version="1.0 (4035a4fb49, 2020-05-01)"
   sodipodi:docname="logo_vector - Copia (2).svg">
  <defs
     id="defs2" />
  <sodipodi:namedview
     inkscape:snap-global="true"
     inkscape:guide-bbox="true"
     showguides="true"
     id="base"
     pagecolor="#ffffff"
     bordercolor="#666666"
     borderopacity="1.0"
     inkscape:pageopacity="0.0"
     inkscape:pageshadow="2"
     inkscape:zoom="0.98994951"
     inkscape:cx="-11.54405"
     inkscape:cy="113.29823"
     inkscape:document-units="px"
     inkscape:current-layer="layer1"
     inkscape:document-rotation="0"
     showgrid="false"
     inkscape:window-width="1920"
     inkscape:window-height="1027"
     inkscape:window-x="1912"
     inkscape:window-y="-8"
     inkscape:window-maximized="1"
     fit-margin-top="0"
     fit-margin-left="0"
     fit-margin-right="0"
     fit-margin-bottom="0"
     units="px" />
  <metadata
     id="metadata5">
    <rdf:RDF>
      <cc:Work
         rdf:about="">
        <dc:format>image/svg+xml</dc:format>
        <dc:type
           rdf:resource="http://purl.org/dc/dcmitype/StillImage" />
        <dc:title></dc:title>
      </cc:Work>
    </rdf:RDF>
  </metadata>
  <g
     inkscape:label="Layer 1"
     inkscape:groupmode="layer"
     id="layer1"
     transform="translate(-72.787532,-128.14411)">
    <text
       id="text105"
       y="206.4657"
       x="109.31324"
       style="font-style:normal;font-weight:normal;font-size:10.5833px;line-height:1.25;font-family:sans-serif;fill:#000000;fill-opacity:1;stroke:none;stroke-width:0.264583"
       xml:space="preserve"><tspan
         style="stroke-width:0.264583"
         y="206.4657"
         x="109.31324"
         id="tspan103"
         sodipodi:role="line" /></text>
    <g
       transform="matrix(1.0209693,0,0,1.0208784,60.989836,6.392451)"
       id="g76">
      <path
         style="fill:#041761;stroke-width:0.357746"
         d="m 22.020154,144.4828 v -8.40704 h -5.232383 -5.232383 l 0.165393,-5.09789 c 0.1891,-5.82864 0.786577,-7.67745 3.099337,-9.59049 1.970832,-1.63021 4.16461,-2.12571 9.411446,-2.12571 h 4.585773 v 8.40704 8.40705 h 1.609859 1.609859 v -4.69864 c 0,-5.50486 0.354731,-6.95416 2.221048,-9.07441 2.113967,-2.40159 4.207381,-3.04104 9.955752,-3.04104 h 4.637289 v 8.40704 8.40705 h 1.788726 1.78874 v -5.25325 c 0,-5.99055 0.43826,-7.47074 2.78463,-9.40481 2.10199,-1.73264 3.92111,-2.15603 9.26361,-2.15603 h 4.76585 v 8.40704 8.40705 c 27.278141,-19.37593 0,0 0,0 h -5.18733 -5.18732 v 5.19881 c 0,5.67627 -0.31409,7.01908 -2.07602,8.8755 -2.06705,2.17789 -3.31196,2.53684 -9.282436,2.67643 l -5.455637,0.12756 v -8.43915 -8.43915 h -1.577751 -1.577752 l -0.121544,5.45563 c -0.115098,5.16626 -0.172527,5.54235 -1.082727,7.0906 -1.049267,1.78479 -3.061058,3.37076 -4.970412,3.91836 -0.670234,0.19222 -3.352739,0.34949 -5.961115,0.34949 h -4.742502 z"
         id="path8"
         sodipodi:nodetypes="ccccssscccccssscccccssscccaccssscccccsssscc" />
      <path
         id="path8-7"
         d="m 69.2427,136.07576 h 1.609865 1.60986 v -4.4069 c 0,-5.42453 0.58704,-7.71545 2.45228,-9.56992 2.12949,-2.1172 4.64286,-2.83727 9.90339,-2.83727 h 4.45842 v 8.38744 l 0.02362,8.42665 h -3.605847 l 0.0048,5.72397 c 0.0052,6.3056 -0.49769,7.16461 -3.1319,9.17379 -1.90845,1.45562 -4.12704,1.91635 -9.22798,1.91635 H 69.2427 v -8.40704 z"
         style="fill:#159ccb;fill-opacity:1;stroke-width:0.357746"
         sodipodi:nodetypes="cccsssccccsssccc" />
    </g>
  </g>
</svg>
