<?xml version="1.0" encoding="UTF-8" standalone="no"?>
<svg
   xmlns:dc="http://purl.org/dc/elements/1.1/"
   xmlns:cc="http://creativecommons.org/ns#"
   xmlns:rdf="http://www.w3.org/1999/02/22-rdf-syntax-ns#"
   xmlns:svg="http://www.w3.org/2000/svg"
   xmlns="http://www.w3.org/2000/svg"
   xmlns:sodipodi="http://sodipodi.sourceforge.net/DTD/sodipodi-0.dtd"
   xmlns:inkscape="http://www.inkscape.org/namespaces/inkscape"
   sodipodi:docname="desenhando.svg"
   inkscape:version="1.0 (4035a4fb49, 2020-05-01)"
   id="svg8"
   version="1.1"
   viewBox="0 0 79.374997 57.679165"
   height="218"
   width="300">
  <defs
     id="defs2" />
  <sodipodi:namedview
     units="px"
     fit-margin-bottom="0"
     fit-margin-right="0"
     fit-margin-left="0"
     fit-margin-top="0"
     inkscape:window-maximized="1"
     inkscape:window-y="-9"
     inkscape:window-x="-9"
     inkscape:window-height="1284"
     inkscape:window-width="2400"
     showgrid="false"
     inkscape:document-rotation="0"
     inkscape:current-layer="layer1"
     inkscape:document-units="px"
     inkscape:cy="113.29824"
     inkscape:cx="-11.544048"
     inkscape:zoom="0.98994951"
     inkscape:pageshadow="2"
     inkscape:pageopacity="0.0"
     borderopacity="1.0"
     bordercolor="#666666"
     pagecolor="#ffffff"
     id="base"
     showguides="true"
     inkscape:guide-bbox="true"
     inkscape:snap-global="true" />
  <metadata
     id="metadata5">
    <rdf:RDF>
      <cc:Work
         rdf:about="">
        <dc:format>image/svg+xml</dc:format>
        <dc:type
           rdf:resource="http://purl.org/dc/dcmitype/StillImage" />
        <dc:title></dc:title>
      </cc:Work>
    </rdf:RDF>
  </metadata>
  <g
     transform="translate(-72.787532,-128.14411)"
     id="layer1"
     inkscape:groupmode="layer"
     inkscape:label="Layer 1">
    <text
       xml:space="preserve"
       style="font-style:normal;font-weight:normal;font-size:10.5833px;line-height:1.25;font-family:sans-serif;fill:#000000;fill-opacity:1;stroke:none;stroke-width:0.264583"
       x="109.31324"
       y="206.4657"
       id="text105"><tspan
         sodipodi:role="line"
         id="tspan103"
         x="109.31324"
         y="206.4657"
         style="stroke-width:0.264583" /></text>
    <g
       transform="matrix(1.0209693,0,0,1.0202646,-1.5263013,-2.5967887)"
       id="g228">
      <g
         transform="translate(61.232142,8.8824404)"
         id="g76">
        <path
           style="fill:#041761;stroke-width:0.357746"
           d="m 22.020154,144.4828 v -8.40704 h -5.232383 -5.232383 l 0.165393,-5.09789 c 0.1891,-5.82864 0.786577,-7.67745 3.099337,-9.59049 1.970832,-1.63021 4.16461,-2.12571 9.411446,-2.12571 h 4.585773 v 8.40704 8.40705 h 1.609859 1.609859 v -4.69864 c 0,-5.50486 0.354731,-6.95416 2.221048,-9.07441 2.113967,-2.40159 4.207381,-3.04104 9.955752,-3.04104 h 4.637289 v 8.40704 8.40705 h 1.788726 1.78874 v -5.25325 c 0,-5.99055 0.43826,-7.47074 2.78463,-9.40481 2.10199,-1.73264 3.92111,-2.15603 9.26361,-2.15603 h 4.76585 v 8.40704 8.40705 c 27.278141,-19.37593 0,0 0,0 h -5.18733 -5.18732 v 5.19881 c 0,5.67627 -0.31409,7.01908 -2.07602,8.8755 -2.06705,2.17789 -3.31196,2.53684 -9.282436,2.67643 l -5.455637,0.12756 v -8.43915 -8.43915 h -1.577751 -1.577752 l -0.121544,5.45563 c -0.115098,5.16626 -0.172527,5.54235 -1.082727,7.0906 -1.049267,1.78479 -3.061058,3.37076 -4.970412,3.91836 -0.670234,0.19222 -3.352739,0.34949 -5.961115,0.34949 h -4.742502 z"
           id="path8"
           sodipodi:nodetypes="ccccssscccccssscccccssscccaccssscccccsssscc" />
        <path
           id="path8-7"
           d="m 69.2427,136.07576 h 1.609865 1.60986 v -4.4069 c 0,-5.42453 0.58704,-7.71545 2.45228,-9.56992 2.12949,-2.1172 4.64286,-2.83727 9.90339,-2.83727 h 4.45842 v 8.38744 l 0.02362,8.42665 h -3.605847 l 0.0048,5.72397 c 0.0052,6.3056 -0.49769,7.16461 -3.1319,9.17379 -1.90845,1.45562 -4.12704,1.91635 -9.22798,1.91635 H 69.2427 v -8.40704 z"
           style="fill:#159ccb;fill-opacity:1;stroke-width:0.357746"
           sodipodi:nodetypes="cccsssccccsssccc" />
      </g>
      <g
         id="g210"
         transform="matrix(1.119569,0,0,1.119569,-16.646709,-44.703459)"
         style="fill:#060d51;fill-opacity:1;stroke:none;stroke-width:0.1">
        <path
           sodipodi:nodetypes="csccccccccccsssccsscccc"
           d="m 100.51161,194.26599 v 7.82042 c 0,0.18881 0.006,0.34329 0.0183,0.46344 0.0122,0.11586 0.0306,0.21027 0.0551,0.28322 0.0245,0.0686 0.0551,0.12226 0.0918,0.16091 0.0408,0.0386 0.0897,0.0729 0.14685,0.10295 0.0979,0.0601 0.29572,0.0901 0.59349,0.0901 v 0.23171 h -2.747196 v -0.23171 c 0.183554,0 0.328358,-0.015 0.434411,-0.0451 0.110133,-0.0301 0.193752,-0.0858 0.250857,-0.16735 0.06119,-0.0815 0.09994,-0.1931 0.116252,-0.3347 0.01631,-0.14161 0.02447,-0.32613 0.02447,-0.55356 v -5.35522 c 0,-0.3347 -0.0041,-0.60289 -0.01224,-0.80457 -0.0041,-0.20597 -0.01427,-0.34543 -0.0306,-0.41838 -0.03263,-0.15448 -0.07954,-0.25961 -0.140725,-0.31539 -0.06119,-0.0558 -0.140744,-0.0855 -0.23862,-0.0837 l -0.604271,0.0111 -0.03302,-0.44244 1.799802,-0.41187 z"
           style="font-style:normal;font-variant:normal;font-weight:normal;font-stretch:normal;font-size:12.4336px;line-height:1.25;font-family:'Mongolian Baiti';-inkscape-font-specification:'Mongolian Baiti, Normal';font-variant-ligatures:normal;font-variant-caps:normal;font-variant-numeric:normal;font-variant-east-asian:normal;letter-spacing:-0.201083px;word-spacing:0px;fill:#060d51;fill-opacity:1;stroke:none;stroke-width:0.1"
           id="path61" />
        <path
           sodipodi:nodetypes="cscsccccccccccsssccscccc"
           d="m 96.352561,197.69366 v 4.46832 c 0,0.17809 0.0061,0.32379 0.01821,0.43712 0.01214,0.10928 0.03035,0.19832 0.05464,0.26713 0.02429,0.0688 0.05464,0.12142 0.09107,0.15785 0.04047,0.0324 0.08499,0.0628 0.133564,0.0911 0.105233,0.0567 0.287366,0.085 0.546399,0.085 v 0.21856 h -2.701638 v -0.21856 c 0.137611,0 0.248915,-0.006 0.33391,-0.0182 0.08904,-0.0121 0.159872,-0.0324 0.212488,-0.0607 0.05667,-0.0283 0.09916,-0.0627 0.127493,-0.10321 0.03238,-0.0445 0.06274,-0.0971 0.09107,-0.15785 0.05667,-0.12547 0.085,-0.35819 0.085,-0.69818 v -2.14309 c 0,-0.35213 -0.0061,-0.62937 -0.01821,-0.83174 -0.01214,-0.20237 -0.0344,-0.35415 -0.06678,-0.45533 -0.02833,-0.10119 -0.07286,-0.16392 -0.133564,-0.18821 -0.05667,-0.0283 -0.129531,-0.0411 -0.21856,-0.0425 l -0.601822,-0.009 0.0095,-0.47251 1.770116,-0.32561 z"
           style="font-style:normal;font-variant:normal;font-weight:normal;font-stretch:normal;font-size:12.4336px;line-height:1.25;font-family:'Mongolian Baiti';-inkscape-font-specification:'Mongolian Baiti, Normal';font-variant-ligatures:normal;font-variant-caps:normal;font-variant-numeric:normal;font-variant-east-asian:normal;letter-spacing:-0.201083px;word-spacing:0px;fill:#060d51;fill-opacity:1;stroke:none;stroke-width:0.1"
           id="path59" />
        <path
           d="m 105.85515,197.52374 v 1.89418 h -0.20035 q -0.11535,-0.44926 -0.26106,-0.74067 -0.1457,-0.29749 -0.33391,-0.47355 -0.18213,-0.17606 -0.41283,-0.24891 -0.22463,-0.0729 -0.5039,-0.0729 -0.21249,0 -0.38855,0.0668 -0.16999,0.0607 -0.29749,0.16392 -0.12142,0.0971 -0.19427,0.2307 -0.0668,0.12749 -0.0668,0.26105 0,0.17 0.0486,0.3157 0.0486,0.14571 0.20034,0.30356 0.15785,0.15177 0.44319,0.32784 0.29142,0.17606 0.7771,0.41283 0.44927,0.21856 0.75282,0.43105 0.30963,0.21249 0.49783,0.42497 0.19427,0.21249 0.2732,0.44319 0.085,0.22463 0.085,0.46748 0,0.38248 -0.16392,0.69817 -0.15785,0.30963 -0.41891,0.52819 -0.26105,0.21856 -0.59496,0.33998 -0.33391,0.12142 -0.67997,0.12142 -0.25498,0 -0.5464,-0.0425 -0.29141,-0.0425 -0.61925,-0.13963 -0.10321,-0.0304 -0.18213,-0.0425 -0.0789,-0.0182 -0.14571,-0.0182 -0.13356,0 -0.21856,0.15785 h -0.20034 v -1.98525 h 0.20034 q 0.085,0.42498 0.25499,0.74674 0.16999,0.32177 0.39462,0.53426 0.2307,0.21249 0.5039,0.32177 0.27927,0.10928 0.57069,0.10928 0.20641,0 0.3764,-0.0668 0.17607,-0.0668 0.30356,-0.17607 0.12749,-0.11535 0.19427,-0.26712 0.0729,-0.15178 0.0729,-0.32784 0,-0.20642 -0.0607,-0.37034 -0.0607,-0.16999 -0.22463,-0.32784 -0.16392,-0.15785 -0.44926,-0.32784 -0.28534,-0.17606 -0.7346,-0.40069 -0.44926,-0.21856 -0.72853,-0.40676 -0.2732,-0.18821 -0.43105,-0.37641 -0.15785,-0.19428 -0.21249,-0.40069 -0.0546,-0.21249 -0.0546,-0.47962 0,-0.33998 0.12142,-0.63139 0.1275,-0.29749 0.35213,-0.50998 0.22463,-0.21856 0.53425,-0.33998 0.30963,-0.12749 0.67997,-0.12749 0.11535,0 0.29748,0.0364 0.18213,0.0364 0.36427,0.0789 0.1882,0.0425 0.33998,0.0789 0.15177,0.0364 0.20641,0.0364 0.0971,0 0.15178,-0.0425 0.0546,-0.0425 0.12749,-0.1882 z"
           style="font-style:normal;font-variant:normal;font-weight:normal;font-stretch:normal;font-size:12.4336px;line-height:1.25;font-family:'Mongolian Baiti';-inkscape-font-specification:'Mongolian Baiti, Normal';font-variant-ligatures:normal;font-variant-caps:normal;font-variant-numeric:normal;font-variant-east-asian:normal;letter-spacing:-0.201083px;word-spacing:0px;fill:#060d51;fill-opacity:1;stroke:none;stroke-width:0.1"
           id="path63" />
        <path
           d="m 110.14159,197.52371 q 0.5889,0 1.08066,0.2307 0.49177,0.2307 0.84389,0.61925 0.35819,0.38855 0.55247,0.9046 0.20035,0.51604 0.20035,1.08672 0,0.60104 -0.20642,1.15351 -0.20035,0.5464 -0.56461,0.97137 -0.36427,0.42498 -0.86817,0.67997 -0.50391,0.24891 -1.10495,0.24891 -0.5889,0 -1.07459,-0.24284 -0.47962,-0.24285 -0.82566,-0.64354 -0.34605,-0.40676 -0.53426,-0.92888 -0.18821,-0.52211 -0.18821,-1.08065 0,-0.56461 0.19428,-1.10494 0.19428,-0.54033 0.5464,-0.95923 0.35819,-0.42498 0.84995,-0.67996 0.49783,-0.25499 1.09887,-0.25499 z m -0.1882,0.39462 q -0.26713,0 -0.51605,0.11535 -0.24284,0.10928 -0.43712,0.36427 -0.1882,0.24891 -0.30356,0.6496 -0.11535,0.39463 -0.11535,0.96531 0,0.58889 0.12143,1.12922 0.12749,0.54033 0.35212,0.95316 0.2307,0.40677 0.55247,0.64961 0.32785,0.24284 0.72854,0.24284 0.29141,0 0.53426,-0.10928 0.24892,-0.11535 0.43105,-0.36426 0.18213,-0.25499 0.28534,-0.66782 0.10321,-0.41284 0.10321,-1.01387 0,-0.60104 -0.11535,-1.12923 -0.11535,-0.52818 -0.33998,-0.9228 -0.21856,-0.4007 -0.5464,-0.6314 -0.32178,-0.2307 -0.73461,-0.2307 z"
           style="font-style:normal;font-variant:normal;font-weight:normal;font-stretch:normal;font-size:12.4336px;line-height:1.25;font-family:'Mongolian Baiti';-inkscape-font-specification:'Mongolian Baiti, Normal';font-variant-ligatures:normal;font-variant-caps:normal;font-variant-numeric:normal;font-variant-east-asian:normal;letter-spacing:-0.201083px;word-spacing:0px;fill:#060d51;fill-opacity:1;stroke:none;stroke-width:0.1"
           id="path65" />
        <path
           d="m 115.58359,198.75889 q 1.00165,-1.20695 1.90998,-1.20695 0.31729,0 0.5848,0.10577 0.26753,0.10576 0.46661,0.35461 0.19909,0.24886 0.31107,0.65948 0.11199,0.41061 0.11199,1.02653 v 2.43256 q 0,0.36707 0.0373,0.5786 0.0435,0.21152 0.14309,0.3235 0.0995,0.10577 0.26752,0.13688 0.16798,0.0249 0.42305,0.0249 v 0.22397 h -2.81829 v -0.22397 h 0.11821 q 0.27996,0 0.43549,-0.0498 0.16176,-0.0498 0.24264,-0.16798 0.0808,-0.12443 0.0995,-0.32973 0.0249,-0.20531 0.0249,-0.51638 v -2.33303 q 0,-0.77767 -0.20531,-1.12606 -0.19908,-0.35463 -0.67814,-0.35463 -0.74034,0 -1.47447,0.80879 v 3.00493 q 0,0.56614 0.0684,0.71546 0.0436,0.0934 0.0934,0.16176 0.0559,0.0685 0.1431,0.11199 0.0933,0.0373 0.23641,0.0559 0.14932,0.0186 0.38573,0.0186 v 0.22397 h -2.8183 v -0.22397 h 0.12442 q 0.22397,0 0.36707,-0.0498 0.14309,-0.0498 0.22397,-0.17419 0.0871,-0.12443 0.11821,-0.32351 0.0311,-0.20531 0.0311,-0.51639 v -2.11527 q 0,-1.01409 -0.0498,-1.2505 -0.0436,-0.22397 -0.14309,-0.30485 -0.0934,-0.0809 -0.25508,-0.0809 -0.1742,0 -0.41683,0.0934 l -0.0934,-0.22398 1.71712,-0.69679 h 0.26751 z"
           style="font-style:normal;font-variant:normal;font-weight:normal;font-stretch:normal;font-size:12.4336px;line-height:1.25;font-family:'Mongolian Baiti';-inkscape-font-specification:'Mongolian Baiti, Normal';font-variant-ligatures:normal;font-variant-caps:normal;font-variant-numeric:normal;font-variant-east-asian:normal;letter-spacing:-0.201083px;word-spacing:0px;fill:#060d51;fill-opacity:1;stroke:none;stroke-width:0.1"
           id="path67" />
        <path
           d="m 121.2869,204.8834 v -0.26712 q 0.30962,-0.10321 0.55247,-0.2732 0.24284,-0.16392 0.41283,-0.37034 0.16999,-0.20642 0.25499,-0.44319 0.0911,-0.23677 0.0911,-0.47354 0,-0.0911 -0.0425,-0.17 -0.0425,-0.0789 -0.0971,-0.0789 -0.0182,0 -0.0729,0.0243 -0.0546,0.0304 -0.12749,0.0607 -0.0668,0.0364 -0.15178,0.0607 -0.085,0.0303 -0.16999,0.0303 -0.29748,0 -0.47354,-0.17606 -0.17606,-0.17606 -0.17606,-0.48569 0,-0.15177 0.0607,-0.27927 0.0607,-0.13356 0.16392,-0.2307 0.10928,-0.0971 0.24891,-0.15178 0.14571,-0.0607 0.30963,-0.0607 0.19427,0 0.37641,0.0911 0.1882,0.0911 0.32783,0.26106 0.14571,0.16392 0.23071,0.40069 0.0911,0.23677 0.0911,0.52211 0,0.30963 -0.10928,0.60711 -0.10321,0.29749 -0.32784,0.55247 -0.21856,0.26106 -0.55854,0.47962 -0.33998,0.21856 -0.81352,0.37033 z"
           style="font-style:normal;font-variant:normal;font-weight:normal;font-stretch:normal;font-size:12.4336px;line-height:1.25;font-family:'Mongolian Baiti';-inkscape-font-specification:'Mongolian Baiti, Normal';font-variant-ligatures:normal;font-variant-caps:normal;font-variant-numeric:normal;font-variant-east-asian:normal;letter-spacing:-0.201083px;word-spacing:0px;fill:#060d51;fill-opacity:1;stroke:none;stroke-width:0.1"
           id="path69" />
        <path
           d="m 130.17075,194.39773 v 2.98357 h -0.23538 q -0.11451,-0.85881 -0.4135,-1.36773 -0.14632,-0.25447 -0.36898,-0.45804 -0.21629,-0.20357 -0.47711,-0.34352 -0.25447,-0.14632 -0.5471,-0.22266 -0.28627,-0.0827 -0.5789,-0.0827 -0.32444,0 -0.60435,0.11451 -0.27991,0.10815 -0.48984,0.29263 -0.20357,0.18449 -0.31808,0.42623 -0.11451,0.23538 -0.11451,0.48984 0,0.35625 0.1654,0.62343 0.1654,0.26083 0.45167,0.48348 0.29264,0.22266 0.68069,0.43259 0.39442,0.20993 0.85245,0.45167 0.51529,0.27355 0.97968,0.53437 0.4644,0.26083 0.81429,0.57891 0.35624,0.31171 0.56618,0.71885 0.20993,0.40078 0.20993,0.96696 0,0.48348 -0.20357,0.92243 -0.19721,0.43259 -0.55982,0.76339 -0.35625,0.32444 -0.85881,0.51529 -0.49621,0.19721 -1.09419,0.19721 -0.22266,0 -0.3817,-0.006 -0.15904,-0.006 -0.30535,-0.0318 -0.14632,-0.0191 -0.30536,-0.07 -0.15268,-0.0445 -0.36897,-0.12723 -0.15268,-0.0573 -0.31172,-0.10179 -0.15904,-0.0509 -0.29263,-0.0827 -0.13359,-0.0318 -0.22902,-0.0509 -0.0891,-0.0191 -0.1145,-0.0191 -0.15904,0 -0.25447,0.0954 -0.0891,0.0954 -0.13359,0.39442 h -0.23538 v -2.95814 h 0.23538 q 0.0827,0.4644 0.19085,0.81429 0.11451,0.34352 0.25446,0.5789 0.13995,0.22902 0.36261,0.42622 0.22265,0.19721 0.4962,0.34353 0.27991,0.13995 0.59799,0.22265 0.32444,0.0763 0.6616,0.0763 0.40078,0 0.71886,-0.1145 0.31808,-0.11451 0.54073,-0.30536 0.22266,-0.19721 0.33717,-0.45167 0.12087,-0.26083 0.12087,-0.54074 0,-0.4135 -0.17176,-0.69341 -0.17177,-0.28627 -0.4644,-0.50892 -0.28627,-0.22266 -0.67433,-0.42623 -0.38169,-0.20357 -0.80792,-0.45803 -0.48348,-0.28627 -0.93515,-0.54073 -0.44531,-0.26083 -0.78883,-0.56618 -0.34353,-0.31172 -0.55346,-0.70614 -0.20357,-0.39442 -0.20357,-0.94151 0,-0.45804 0.19085,-0.87154 0.19085,-0.4135 0.52801,-0.72522 0.33716,-0.31171 0.7952,-0.48984 0.46439,-0.18448 1.01149,-0.18448 0.67432,0 1.4568,0.33716 0.34352,0.15904 0.50256,0.15904 0.1654,0 0.26719,-0.0954 0.10814,-0.10179 0.17176,-0.40078 z"
           style="font-style:normal;font-variant:normal;font-weight:normal;font-stretch:normal;font-size:13.0285px;line-height:1.25;font-family:'Mongolian Baiti';-inkscape-font-specification:'Mongolian Baiti, Normal';font-variant-ligatures:normal;font-variant-caps:normal;font-variant-numeric:normal;font-variant-east-asian:normal;letter-spacing:-0.0582083px;fill:#060d51;fill-opacity:1;stroke:none;stroke-width:0.1"
           id="path44" />
        <path
           d="m 134.2192,197.24165 q 0.61707,0 1.13236,0.24174 0.51529,0.24174 0.88426,0.64888 0.37533,0.40715 0.5789,0.94788 0.20993,0.54073 0.20993,1.13872 0,0.6298 -0.21629,1.2087 -0.20993,0.57254 -0.59163,1.01785 -0.38169,0.44531 -0.9097,0.7125 -0.52801,0.26082 -1.15781,0.26082 -0.61707,0 -1.126,-0.25446 -0.50256,-0.25446 -0.86517,-0.67433 -0.36261,-0.42622 -0.55982,-0.97332 -0.19721,-0.54709 -0.19721,-1.13236 0,-0.59162 0.20357,-1.1578 0.20357,-0.56618 0.57254,-1.00513 0.37534,-0.44531 0.89062,-0.7125 0.52165,-0.26719 1.15145,-0.26719 z m -0.19721,0.41351 q -0.27991,0 -0.54073,0.12087 -0.25447,0.11451 -0.45804,0.38169 -0.19721,0.26083 -0.31808,0.68069 -0.12087,0.4135 -0.12087,1.01149 0,0.61707 0.12724,1.18325 0.13359,0.56618 0.36897,0.99877 0.24174,0.42622 0.5789,0.68069 0.34352,0.25446 0.76339,0.25446 0.30535,0 0.55982,-0.11451 0.26082,-0.12087 0.45167,-0.38169 0.19085,-0.26719 0.29899,-0.69978 0.10815,-0.43258 0.10815,-1.06238 0,-0.62979 -0.12087,-1.18325 -0.12087,-0.55346 -0.35625,-0.96696 -0.22902,-0.41986 -0.57254,-0.6616 -0.33716,-0.24174 -0.76975,-0.24174 z"
           style="font-style:normal;font-variant:normal;font-weight:normal;font-stretch:normal;font-size:13.0285px;line-height:1.25;font-family:'Mongolian Baiti';-inkscape-font-specification:'Mongolian Baiti, Normal';font-variant-ligatures:normal;font-variant-caps:normal;font-variant-numeric:normal;font-variant-east-asian:normal;letter-spacing:-0.0582083px;fill:#060d51;fill-opacity:1;stroke:none;stroke-width:0.1"
           id="path46" />
        <path
           d="m 139.79674,198.65382 q 1.09658,-1.23415 2.091,-1.23415 0.34737,0 0.64024,0.10815 0.29287,0.10815 0.51083,0.36261 0.21795,0.25446 0.34055,0.67433 0.1226,0.41986 0.1226,1.04966 v 2.48737 q 0,0.37533 0.0409,0.59163 0.0477,0.21629 0.15666,0.3308 0.10897,0.10815 0.29287,0.13995 0.18391,0.0255 0.46316,0.0255 v 0.22902 h -3.08542 v -0.22902 h 0.12941 q 0.3065,0 0.47678,-0.0509 0.17708,-0.0509 0.26563,-0.17176 0.0885,-0.12724 0.10898,-0.33717 0.0272,-0.20993 0.0272,-0.52801 v -2.38559 q 0,-0.79519 -0.22476,-1.15144 -0.21795,-0.36261 -0.74241,-0.36261 -0.81052,0 -1.61422,0.827 v 3.07264 q 0,0.5789 0.075,0.73158 0.0476,0.0954 0.10214,0.1654 0.0614,0.07 0.15665,0.11451 0.10214,0.0382 0.25882,0.0573 0.16347,0.0191 0.42229,0.0191 v 0.22902 h -3.08541 v -0.22902 h 0.13622 q 0.2452,0 0.40185,-0.0509 0.15666,-0.0509 0.2452,-0.17813 0.0954,-0.12723 0.12942,-0.3308 0.034,-0.20993 0.034,-0.52801 v -2.16293 q 0,-1.03694 -0.0545,-1.27868 -0.0477,-0.22902 -0.15665,-0.31172 -0.10214,-0.0827 -0.27926,-0.0827 -0.19071,0 -0.45634,0.0954 l -0.10214,-0.22902 1.87986,-0.7125 h 0.29288 z"
           style="font-style:normal;font-variant:normal;font-weight:normal;font-stretch:normal;font-size:13.0285px;line-height:1.25;font-family:'Mongolian Baiti';-inkscape-font-specification:'Mongolian Baiti, Normal';font-variant-ligatures:normal;font-variant-caps:normal;font-variant-numeric:normal;font-variant-east-asian:normal;letter-spacing:-0.0582083px;fill:#060d51;fill-opacity:1;stroke:none;stroke-width:0.1"
           id="path48" />
        <path
           d="m 148.47649,197.44009 v 1.92102 h -0.20993 q -0.12087,-0.45562 -0.27355,-0.75117 -0.15268,-0.30169 -0.34989,-0.48025 -0.19084,-0.17851 -0.43258,-0.25244 -0.23538,-0.0739 -0.52801,-0.0739 -0.22266,0 -0.40715,0.0677 -0.17812,0.0615 -0.31171,0.16632 -0.12723,0.0984 -0.20357,0.23397 -0.07,0.12938 -0.07,0.26474 0,0.17251 0.0509,0.32019 0.0509,0.14776 0.20993,0.30785 0.16541,0.15395 0.4644,0.33249 0.30535,0.17851 0.81428,0.41869 0.47076,0.22163 0.78884,0.43714 0.32444,0.2155 0.52164,0.431 0.20357,0.21549 0.28628,0.44946 0.0891,0.22782 0.0891,0.4741 0,0.3879 -0.17177,0.70808 -0.1654,0.31401 -0.43894,0.53566 -0.27355,0.22167 -0.62344,0.34481 -0.34988,0.12319 -0.71249,0.12319 -0.26719,0 -0.57255,-0.0431 -0.30535,-0.0431 -0.64888,-0.14157 -0.10814,-0.0308 -0.19084,-0.0431 -0.0827,-0.0186 -0.15268,-0.0186 -0.13996,0 -0.22902,0.16013 h -0.20993 v -2.01337 h 0.20993 q 0.0891,0.431 0.26719,0.75732 0.17812,0.32633 0.4135,0.54183 0.24174,0.21548 0.52801,0.32632 0.29263,0.11082 0.59799,0.11082 0.21629,0 0.39442,-0.0677 0.18448,-0.0677 0.31808,-0.17851 0.13359,-0.11701 0.20357,-0.27092 0.0763,-0.15394 0.0763,-0.33249 0,-0.20933 -0.0636,-0.37557 -0.0636,-0.17233 -0.23538,-0.33249 -0.17176,-0.16013 -0.47076,-0.33248 -0.29899,-0.1785 -0.76975,-0.40638 -0.47075,-0.22164 -0.76338,-0.41252 -0.28628,-0.19086 -0.45168,-0.38175 -0.1654,-0.19701 -0.22265,-0.40635 -0.0573,-0.2155 -0.0573,-0.48643 0,-0.34479 0.12724,-0.64032 0.13359,-0.3017 0.36897,-0.51721 0.23538,-0.22165 0.55982,-0.34479 0.32444,-0.12938 0.71249,-0.12938 0.12087,0 0.31172,0.0369 0.19085,0.0369 0.38169,0.0801 0.19721,0.0431 0.35625,0.0801 0.15904,0.0369 0.21629,0.0369 0.10179,0 0.15904,-0.0431 0.0573,-0.0431 0.1336,-0.19089 z"
           style="font-style:normal;font-variant:normal;font-weight:normal;font-stretch:normal;font-size:13.0285px;line-height:1.25;font-family:'Mongolian Baiti';-inkscape-font-specification:'Mongolian Baiti, Normal';font-variant-ligatures:normal;font-variant-caps:normal;font-variant-numeric:normal;font-variant-east-asian:normal;letter-spacing:-0.0582083px;fill:#060d51;fill-opacity:1;stroke:none;stroke-width:0.1"
           id="path50" />
        <circle
           r="0.8799758"
           cy="195.45613"
           cx="95.965157"
           id="path79"
           style="fill:#060d51;fill-opacity:1;stroke:none;stroke-width:0.1" />
        <path
           sodipodi:nodetypes="cccccccccccccccccccccccccccccc"
           id="path87"
           d="m 80.725648,194.695 v 0.48443 h 0.859879 l 2.964749,8.18931 h 0.786958 l 2.154171,-5.87539 2.360324,5.87539 h 0.760597 l 2.701679,-7.92396 c 0.141987,-0.26535 1.012946,-0.26535 1.012946,-0.26535 l 0.01111,-0.48443 h -3.181752 l 0.003,0.48443 0.933128,-0.0118 c 0.108578,0.0543 0.233133,0.28015 0.22478,0.47642 l -1.55391,5.10935 -2.175043,-4.77004 c -0.07517,-0.2965 0.0097,-0.80393 0.0097,-0.80393 l 1.228088,2.4e-4 V 194.695 h -4.37 v 0.48443 h 0.886744 c 0.42859,0.25071 0.77031,0.92364 0.688032,1.42812 l -1.452845,4.19317 -1.724515,-5.11449 c 0,-0.27758 0.01476,-0.28238 0.103353,-0.5068 h 0.861034 l 3.92e-4,-0.48443 z"
           style="fill:#060d51;fill-opacity:1;stroke:none;stroke-width:0.1;stroke-linecap:butt;stroke-linejoin:miter;stroke-opacity:1" />
      </g>
    </g>
  </g>
</svg>
